<svg width="80" height="80" viewBox="0 0 80 80" fill="none" xmlns="http://www.w3.org/2000/svg">
<rect width="80" height="80" rx="20" fill="#00F0FF"/>
<path d="M26.9427 45.3982C22.6235 49.7175 16.5057 51.1416 11 49.6714C11.7235 52.3809 13.1476 54.9422 15.2732 57.0678C21.7182 63.5127 32.1674 63.5127 38.6123 57.0678C41.8348 53.8454 41.8347 48.6207 38.6123 45.3983C35.3898 42.1757 30.1652 42.1757 26.9427 45.3982Z" fill="#121212"/>
<path d="M37.0104 40.0848C38.5663 40.6749 39.9935 41.5931 41.2055 42.805C42.4374 44.0369 43.3394 45.4746 43.9181 47.0076L50.4546 40.4711L43.5394 33.5558C41.0586 36.0366 38.7386 38.3566 37.0104 40.0848Z" fill="#121212"/>
<path d="M65.5782 18.4322C63.6686 16.5226 60.5725 16.5226 58.663 18.4322C57.9434 19.1519 52.0011 25.0941 46.1327 30.9625L53.0479 37.8779L65.5782 25.3475C67.4878 23.4379 67.4878 20.3418 65.5782 18.4322Z" fill="#121212"/>
</svg>
